<svg width="60" height="60" viewBox="0 0 60 60" fill="none" xmlns="http://www.w3.org/2000/svg">
    <g>
        <path d="M23 9.6673L7 12.1673L9 32.1675L34.5 57.6675L53 57.1675L49 36.1673L23 9.6673Z" fill="#EDDDC8" />
        <path fill-rule="evenodd" clip-rule="evenodd" d="M9.47245 31.6987L34.3933 57.4685L53.0414 56.8877L48.553 36.4273L23.1469 10.1557L7.3158 12.6063L9.47245 31.6987ZM34.1282 58.0899L9.04657 32.1538C8.99332 32.0988 8.95875 32.0198 8.94873 31.9334L6.73717 12.354C6.72662 12.261 6.74598 12.167 6.79074 12.0925C6.83506 12.0182 6.90112 11.9702 6.97375 11.9589L23.1958 9.44797C23.2694 9.43686 23.3429 9.46366 23.4001 9.52274L48.9631 35.9566C49.0072 36.0022 49.0387 36.0638 49.0538 36.1331L53.6599 57.1306C53.6829 57.2334 53.6669 57.3443 53.6174 57.4311C53.5672 57.5171 53.4886 57.5693 53.4046 57.5719L34.3065 58.1669C34.2415 58.169 34.1787 58.142 34.1282 58.0899Z" fill="black" />
        <path fill-rule="evenodd" clip-rule="evenodd" d="M34.1283 58.0899C34.0387 57.9973 34.002 57.837 34.0462 57.6926L36.4293 49.9165C36.4394 49.883 36.4533 49.8518 36.471 49.8239L43.6523 38.5012C43.682 38.4543 43.7204 38.4187 43.7637 38.3964L48.6913 35.9037C48.8313 35.833 48.9892 35.9201 49.0452 36.0988C49.1002 36.2773 49.032 36.4796 48.892 36.5503L44.0307 39.0095L36.9208 50.2196L34.5533 57.9464C34.4984 58.1251 34.3408 58.2134 34.2008 58.1432C34.1738 58.1295 34.1495 58.1118 34.1283 58.0899Z" fill="black" />
        <path fill-rule="evenodd" clip-rule="evenodd" d="M9.04699 32.1537C8.962 32.0658 8.92393 31.9169 8.95975 31.7757L11.0229 23.6688C11.0332 23.6287 11.0491 23.5907 11.0702 23.5574L17.6672 13.1559C17.6906 13.119 17.7197 13.0887 17.7528 13.067L23.1031 9.48509C23.2358 9.3956 23.4004 9.45921 23.4704 9.6315C23.5402 9.80135 23.4891 10.0117 23.3555 10.1009L18.0553 13.6497L11.5255 23.9454L9.47759 31.9913C9.43096 32.1735 9.27755 32.2736 9.13424 32.2141C9.10184 32.2008 9.07238 32.18 9.04699 32.1537Z" fill="black" />
        <path fill-rule="evenodd" clip-rule="evenodd" d="M11.5011 23.5559L36.8159 49.733L52.7368 56.5734L43.662 38.9599L17.7773 13.7138L7.45462 12.6968L11.5011 23.5559ZM36.5112 50.3128L11.1101 24.0463C11.0787 24.0139 11.053 23.9724 11.0357 23.9261L6.76057 12.4533C6.71906 12.341 6.72726 12.2093 6.78239 12.1068C6.83722 12.0047 6.93062 11.9476 7.02753 11.9569L17.8996 13.0283C17.9519 13.0332 18.0024 13.0578 18.0438 13.0983L44.0293 38.4435C44.0541 38.4632 44.0745 38.4955 44.0914 38.5287L53.6255 57.033C53.6893 57.1571 53.6848 57.3188 53.6136 57.4367C53.5428 57.5537 53.4212 57.6009 53.3111 57.5535L36.5955 50.3723C36.565 50.3587 36.5366 50.339 36.5112 50.3128Z" fill="black" />


    </g>
</svg>