<svg width="61" height="65" viewBox="0 0 61 65" fill="none" xmlns="http://www.w3.org/2000/svg" overflow="visible">
<path d="M32.5 64.3502L1 31.3502L32.5 0.350159L60 33.3502L32.5 64.3502Z" fill="#DAD0E7"/>
<path fill-rule="evenodd" clip-rule="evenodd" d="M1.38364 31.2852L32.4434 64.2942L59.7145 33.504L40.2128 27.2025L1.38364 31.2852ZM32.4495 64.9995C32.3709 64.9995 32.2961 64.9678 32.2425 64.9105L0.57695 31.2573C0.503055 31.1787 0.480318 31.065 0.517739 30.9636C0.55516 30.8622 0.647056 30.7912 0.75411 30.7798L40.2133 26.6308C40.2516 26.6275 40.2924 26.6313 40.3303 26.6431L60.3029 33.0966C60.3943 33.126 60.4644 33.1999 60.4895 33.2923C60.5151 33.3846 60.4919 33.4836 60.4284 33.5556L32.6622 64.9038C32.6092 64.964 32.5338 64.9986 32.4538 64.9995C32.4524 64.9995 32.451 64.9995 32.4495 64.9995Z" fill="black"/>
<path fill-rule="evenodd" clip-rule="evenodd" d="M1.33838 30.9244L20.2973 36.3065L59.6404 33.1285L32.4284 1.05033L1.33838 30.9244ZM20.2689 36.8777C20.2428 36.8777 20.2167 36.8744 20.1916 36.8673L0.70648 31.3361C0.6089 31.3081 0.53311 31.2299 0.508478 31.1314C0.483846 31.0324 0.513688 30.9282 0.587584 30.8576L32.2527 0.431218C32.3095 0.377217 32.3858 0.352112 32.4644 0.352112C32.5426 0.356375 32.6155 0.392375 32.6662 0.452534L60.4324 33.1834C60.5016 33.2644 60.5191 33.3781 60.4783 33.4762C60.4371 33.5747 60.3448 33.642 60.2387 33.6505L20.2921 36.8768C20.2845 36.8777 20.2769 36.8777 20.2689 36.8777Z" fill="black"/>
<path fill-rule="evenodd" clip-rule="evenodd" d="M32.4493 65C32.3394 65 32.2347 64.9361 32.1883 64.8285L20.0079 36.7066C19.98 36.6417 19.9766 36.5693 19.9994 36.5025L32.1803 0.544795C32.2201 0.42732 32.3295 0.335898 32.455 0.352004C32.5786 0.354372 32.6866 0.436794 32.7217 0.555216L40.5153 26.8326C40.5598 26.9832 40.4741 27.1414 40.3234 27.186C40.1738 27.2295 40.0151 27.1452 39.9701 26.9946L32.4313 1.57507L20.573 36.5811L32.7103 64.6026C32.7724 64.7466 32.7061 64.9143 32.5621 64.9768C32.5256 64.9924 32.4872 65 32.4493 65Z" fill="black"/>
<animateTransform attributeType="xml" attributeName="transform" type="rotate" from="360" to="0" dur="6s" additive="sum" repeatCount="indefinite" />

</svg>
