<svg width="60" height="50" viewBox="0 0 60 50" fill="none" xmlns="http://www.w3.org/2000/svg">
<path d="M60 25.322L26.5 0.822021L0 29.322L3.5 49.822H46.5L60 25.322Z" fill="#F0E8D1"/>
<path fill-rule="evenodd" clip-rule="evenodd" d="M3.77723 49.2621H46.1968L26.7001 1.86311L0.760606 29.6546L3.77723 49.2621ZM46.7595 49.9999C46.7564 49.9999 46.7521 49.9999 46.7478 49.9999H3.46056C3.27917 49.9999 3.12422 49.8671 3.09594 49.687L0.00429856 29.5895C-0.0129182 29.4782 0.0221302 29.3644 0.0996056 29.282L26.5531 0.939552C26.6386 0.847319 26.7641 0.806122 26.8889 0.828258C27.0125 0.850393 27.1164 0.934633 27.1637 1.05085L47.0565 49.4109C47.102 49.4724 47.129 49.5486 47.129 49.631C47.129 49.8345 46.9636 49.9999 46.7595 49.9999Z" fill="black"/>
<path fill-rule="evenodd" clip-rule="evenodd" d="M3.46056 50.0001C3.37017 50.0001 3.27856 49.9663 3.20723 49.8993C3.05904 49.7591 3.05289 49.5254 3.19247 49.3772L33.3642 17.4949C33.5044 17.3467 33.7381 17.3406 33.8856 17.4801C34.0338 17.6203 34.04 17.854 33.8998 18.0022L3.72927 49.8851C3.6561 49.9614 3.55894 50.0001 3.46056 50.0001Z" fill="black"/>
<path fill-rule="evenodd" clip-rule="evenodd" d="M1.90353 29.7968L46.5816 49.157L58.9924 25.8259L1.90353 29.7968ZM46.7476 50C46.6984 50 46.6486 49.9902 46.6013 49.9699L0.221817 29.8718C0.0662514 29.8041 -0.0235217 29.6387 0.00537786 29.4709C0.0342774 29.3036 0.173856 29.177 0.343564 29.1653L58.6051 25.1126L26.6034 1.48812C26.4399 1.36699 26.4048 1.1358 26.5259 0.972237C26.6465 0.808063 26.8777 0.773014 27.0418 0.894146L59.849 25.1132C59.8502 25.115 59.852 25.1163 59.8539 25.1175C59.8539 25.1175 59.8539 25.1175 59.8539 25.1181C59.8859 25.1415 59.9123 25.1698 59.9332 25.2005C59.9683 25.2503 59.991 25.3087 59.9978 25.3721C59.9998 25.3911 59.9999 25.4102 59.9999 25.4293C59.9999 25.4293 59.9999 25.4293 59.9999 25.4299C59.9965 25.487 59.9799 25.5418 59.9535 25.5897L47.0729 49.8045C47.0077 49.9281 46.8805 50 46.7476 50Z" fill="black"/>
</svg>
