<svg width="2260" height="1243" viewBox="0 0 2260 1243" fill="none" xmlns="http://www.w3.org/2000/svg">
<g id="Group 20">
<g id="shape-7">
<path id="Vector 10" d="M717.957 -2.51929e-05L1542.5 287L1366 416L0.00243731 65.5L0.00244141 0.00119551L717.957 -2.51929e-05Z" fill="#DAD0E7"/>
</g>
<g id="shape-6">
<path id="Vector 9" d="M-0.000683955 1242.5L-0.000732422 65.5017L1366 416L1402 811.5L1229.5 920L718.494 1242.5L-0.000683955 1242.5Z" fill="#F0E8D1"/>
</g>
<g id="shape-5">
<path id="Vector 8" d="M1417.5 954L1229.5 920L718.502 1242.5L1660.5 1242.8L1417.5 954Z" fill="#EAC1D6"/>
</g>
<g id="shape-4">
<path id="Vector 7" d="M1229.5 920L1402 811.5L1417.5 954L1229.5 920Z" fill="#DAD0E7"/>
</g>
<g id="shape-3">
<path id="Vector 6" d="M718.065 3.72304e-05L1917.5 0L1885.5 381L1542.5 287L718.065 3.72304e-05Z" fill="#EDDDC8"/>
</g>
<g id="shape-2">
<path id="Vector 5" d="M1542.5 287L1885.5 381L1402 811.5L1366 416L1542.5 287Z" fill="#EAC1D6"/>
</g>
<g id="shape-1">
<path id="Vector 3" d="M2260 0.501433L2260 290.5L1885.5 381L1917.5 -1.04647e-05L2260 0.501433Z" fill="#DAD0E7"/>
</g>
</g>
</svg>
