<svg width="80" height="60" viewBox="0 0 80 60" fill="none" xmlns="http://www.w3.org/2000/svg">
<path d="M68.2715 7L78.7715 26.5L67.2715 51L47.7715 59.5H32.2715L1.27148 32L34.2715 0.5H47.7715L68.2715 7Z" fill="#EAC1D6"/>
<path fill-rule="evenodd" clip-rule="evenodd" d="M37.9409 49.0352L54.8486 27.0721L37.9989 9.62366L1.96523 32.3241L37.9409 49.0352ZM55.7445 27.0437C55.7445 27.1268 55.718 27.21 55.6645 27.2796L38.365 49.7525C38.2548 49.8956 38.0602 49.9433 37.8958 49.8666L0.995267 32.7262C0.867013 32.6663 0.781295 32.5419 0.772272 32.4001C0.763249 32.257 0.83221 32.1236 0.95273 32.0482L37.8526 8.80193C38.008 8.70396 38.2097 8.72846 38.3367 8.85993L55.6362 26.775C55.7084 26.8504 55.7445 26.947 55.7445 27.0437Z" fill="black"/>
<path fill-rule="evenodd" clip-rule="evenodd" d="M48.8166 0.386682C48.8166 0.498823 48.7683 0.60774 48.6794 0.682504L38.3082 9.42443C38.1451 9.56171 37.9008 9.54109 37.7629 9.37803C37.625 9.21562 37.6456 8.97135 37.8093 8.83279L47.3717 0.773378L34.4528 0.773379L1.73114 32.3601L32.6817 59.2271L47.4787 59.2271L37.7887 49.793C37.6359 49.6448 37.6321 49.3999 37.7816 49.2465C37.9305 49.0931 38.1747 49.0899 38.3288 49.2394L48.7006 59.3367C48.8128 59.4469 48.8482 59.6132 48.7883 59.7588C48.729 59.9051 48.5878 59.9999 48.4306 59.9999L32.5373 59.9999C32.4445 59.9999 32.3543 59.9664 32.2841 59.9058L0.904249 32.6675C0.822398 32.5966 0.774061 32.4941 0.771483 32.3852C0.77535 32.2827 0.811442 32.1725 0.889426 32.0971L34.0281 0.10826C34.1002 0.0386529 34.1969 -1.29052e-05 34.2968 -1.29095e-05L48.4306 -1.35273e-05C48.593 -1.35344e-05 48.738 0.101812 48.7934 0.253916C48.8089 0.297094 48.8166 0.342211 48.8166 0.386682Z" fill="black"/>
<path fill-rule="evenodd" clip-rule="evenodd" d="M79.227 26.1601C79.227 26.2974 79.1536 26.4295 79.0253 26.5004C78.8384 26.6029 78.6032 26.5339 78.5007 26.3464L68.0908 7.34665L48.3074 0.753468C48.1044 0.68644 47.9961 0.466021 48.0625 0.264938C48.1301 0.0619221 48.3493 -0.0476399 48.5517 0.020031L68.4794 6.66026C68.5722 6.6912 68.6496 6.75629 68.6966 6.84201L79.1793 25.9751C79.2109 26.0338 79.227 26.0982 79.227 26.1601Z" fill="black"/>
<path fill-rule="evenodd" clip-rule="evenodd" d="M67.4438 49.9187L78.2256 27.4304L55.9879 27.4304L67.4438 49.9187ZM79.2265 27.0437C79.2265 27.101 79.2136 27.1577 79.1885 27.2112L67.8048 50.9551C67.7706 51.0279 67.7139 51.0904 67.6385 51.131C67.6378 51.131 67.6378 51.131 67.6378 51.1317C67.6327 51.1342 67.6282 51.1368 67.6237 51.1394C67.623 51.1394 67.623 51.1394 67.623 51.1394L67.6224 51.1394C67.6198 51.1407 67.6179 51.142 67.6153 51.1433L48.5924 59.9638C48.399 60.0541 48.1683 59.9696 48.0793 59.7756C47.9891 59.5849 48.0723 59.3528 48.2675 59.2626L66.9276 50.6096L55.0128 27.2196C54.9522 27.0978 54.9574 26.956 55.0277 26.8419C55.0979 26.7272 55.2229 26.6576 55.3576 26.6576L78.8398 26.6576C78.9726 26.6576 79.0963 26.7253 79.1672 26.8381C79.2065 26.9006 79.2265 26.9721 79.2265 27.0437Z" fill="black"/>
</svg>
